<svg width="599" height="440" viewBox="0 0 599 440" fill="none" xmlns="http://www.w3.org/2000/svg">
<path d="M416.502 413.037L416.501 413.038C414.679 414.39 412.426 415.174 410.148 415.843C409.602 416.003 409.055 416.157 408.511 416.31C406.759 416.802 405.035 417.286 403.443 417.965L416.502 413.037ZM416.502 413.037C419.102 411.102 420.275 408.401 421.361 405.903C421.513 405.552 421.664 405.205 421.817 404.865C423.066 402.081 424.882 399.231 428.241 398.019C432.201 396.593 436.714 397.996 440.378 399.762C440.809 399.969 441.243 400.183 441.681 400.4C444.943 402.011 448.456 403.746 452.556 403.637C454.419 403.587 456.227 403.157 457.979 402.729L458.133 402.692C459.847 402.273 461.508 401.868 463.204 401.778C468.014 401.535 472.136 403.836 475.907 406.12L475.908 406.12M416.502 413.037L475.908 406.12M475.908 406.12C477.272 406.943 478.634 407.783 479.773 408.729C480.911 409.674 481.786 410.695 482.215 411.861L482.215 411.862M475.908 406.12L482.215 411.862M482.215 411.862C482.732 413.263 482.525 414.806 481.753 416.283C480.98 417.762 479.65 419.148 477.984 420.188L477.983 420.188M482.215 411.862L477.983 420.188M477.983 420.188C474.63 422.292 470.184 423.159 465.892 423.23L465.891 423.23M477.983 420.188L465.891 423.23M465.891 423.23C465.363 423.24 464.816 423.242 464.26 423.244C462.771 423.249 461.211 423.255 459.742 423.408C457.716 423.621 455.757 424.121 454.258 425.36L454.258 425.36M465.891 423.23L454.258 425.36M454.258 425.36C452.769 426.594 452.24 428.166 451.849 429.681C451.787 429.919 451.729 430.154 451.672 430.386C451.357 431.664 451.063 432.854 450.337 433.918C449.461 435.192 447.987 436.187 446.211 436.864C444.44 437.539 442.407 437.88 440.469 437.875C436.617 437.863 433 436.777 429.398 435.695L429.256 435.653C425.626 434.563 421.773 433.458 417.677 433.593M454.258 425.36L404.65 436.71M404.65 436.71L404.651 436.71C405.331 436.497 406.016 436.274 406.705 436.05C410.234 434.902 413.878 433.716 417.677 433.593M404.65 436.71C402.837 437.281 400.271 438.071 397.812 438.375C395.315 438.683 393.12 438.465 391.874 437.239L391.872 437.237M404.65 436.71L391.872 437.237M417.677 433.593L417.693 434.093L417.677 433.593C417.677 433.593 417.677 433.593 417.677 433.593ZM391.872 437.237C390.814 436.206 390.833 434.451 391.436 432.405C392.008 430.466 393.04 428.489 393.756 427.115C393.779 427.071 393.802 427.027 393.824 426.984C395.733 423.34 398.937 419.892 403.443 417.965L391.872 437.237Z" fill="#04D361" stroke="#04D361"/>
<path d="M392.292 437.271C413.609 423.562 438.481 414.483 465.323 410.621" stroke="white" stroke-width="0.7047" stroke-miterlimit="10" stroke-linecap="round" stroke-linejoin="round"/>
<path d="M413.368 416.186C413.865 411.665 412.727 406.951 414.713 402.669C418.253 395.041 430.521 391.06 433.596 383.324C437.279 374.077 426.036 364.638 427.99 355.103C428.807 351.085 431.898 347.547 433.82 343.745C435.742 339.943 436.238 335.181 432.507 332.219C428.599 329.125 421.504 329.484 416.859 331.955C412.215 334.426 409.54 338.432 407.362 342.378C405.2 346.323 403.294 350.449 399.627 353.724C392.948 359.684 380.936 362.299 377.285 369.579C373.569 376.991 380.6 384.835 381.849 392.691C382.794 398.64 380.376 404.564 378.214 410.345C376.067 416.126 374.162 422.243 376.131 428.048C378.758 435.784 388.063 440.713 396.984 435.748C405.809 430.866 412.455 424.69 413.368 416.186Z" fill="#04D361"/>
<path d="M391.33 437.643C387.791 410.034 395.895 380.086 414.825 356.242" stroke="white" stroke-width="1.1364" stroke-miterlimit="10" stroke-linecap="round" stroke-linejoin="round"/>
<path d="M367.756 427.232C363.864 423.119 361.638 417.973 356.353 414.843C350.299 411.245 341.907 411.209 334.219 410.741C326.516 410.273 317.835 408.642 314.264 403.509C312.31 400.69 312.31 397.344 310.948 394.346C309.443 391.048 306.368 388.313 304.206 385.231C302.06 382.148 300.923 378.226 303.421 375.288C305.952 372.314 311.493 371.438 316.026 372.398C320.558 373.357 324.274 375.744 327.669 378.19C331.064 380.637 334.38 383.252 338.56 384.859C345.494 387.51 353.726 387.018 361.51 386.766C369.294 386.526 377.782 386.766 383.804 390.484C388.753 393.542 391.011 398.352 393.029 402.921C395.944 409.458 398.923 415.97 401.757 422.531C403.503 426.561 406.834 432.737 401.229 435.904C391.347 441.481 373.458 433.241 367.756 427.232Z" fill="#04D361"/>
<path d="M398.106 436.144C385.742 414.651 359.573 396.349 328.246 388.277" stroke="white" stroke-width="0.8174" stroke-miterlimit="10" stroke-linecap="round" stroke-linejoin="round"/>
<path d="M372.35 18.3516C375.718 21.8253 375.715 27.2904 372.344 30.5577C368.974 33.825 363.511 33.6577 360.144 30.184C356.777 26.7102 356.779 21.2451 360.15 17.9778C363.51 14.7208 368.983 14.8779 372.35 18.3516Z" stroke="#04D361" stroke-width="2" stroke-miterlimit="10" stroke-linecap="round" stroke-linejoin="round"/>
<path d="M370.287 30.3263L375.555 31.6761" stroke="#04D361" stroke-width="2" stroke-miterlimit="10" stroke-linecap="round" stroke-linejoin="round"/>
<path d="M250.627 23L261 31.0854" stroke="#04D361" stroke-width="2" stroke-miterlimit="10" stroke-linecap="round" stroke-linejoin="round"/>
<path d="M261 23L250.627 31.0854" stroke="#04D361" stroke-width="2" stroke-miterlimit="10" stroke-linecap="round" stroke-linejoin="round"/>
<path d="M311.399 431.915L315.639 439" stroke="#04D361" stroke-width="2" stroke-miterlimit="10" stroke-linecap="round" stroke-linejoin="round"/>
<path d="M315.639 431.915L311.399 439" stroke="#04D361" stroke-width="2" stroke-miterlimit="10" stroke-linecap="round" stroke-linejoin="round"/>
<path d="M42.3262 338.02V348.04" stroke="#04D361" stroke-width="2" stroke-miterlimit="10" stroke-linecap="round" stroke-linejoin="round"/>
<path d="M45.333 343.029H39.3301" stroke="#04D361" stroke-width="2" stroke-miterlimit="10" stroke-linecap="round" stroke-linejoin="round"/>
<path d="M29.2878 261.089C29.2878 264.445 27.6589 267.179 25.6439 267.179C23.6359 267.179 22 264.457 22 261.089C22 257.734 23.6289 255 25.6439 255C27.6589 255.012 29.2878 257.734 29.2878 261.089Z" stroke="#04D361" stroke-width="2" stroke-miterlimit="10" stroke-linecap="round" stroke-linejoin="round"/>
<path d="M180.53 408.368C180.53 411.723 178.901 414.457 176.886 414.457C174.878 414.457 173.242 411.735 173.242 408.368C173.242 405.012 174.871 402.278 176.886 402.278C178.901 402.29 180.53 405.012 180.53 408.368Z" stroke="#04D361" stroke-width="2" stroke-miterlimit="10" stroke-linecap="round" stroke-linejoin="round"/>
<path d="M432 295C432 300.511 427.977 305 423 305C418.04 305 414 300.53 414 295C414 289.489 418.023 285 423 285C427.977 285.019 432 289.489 432 295Z" stroke="#04D361" stroke-width="2" stroke-miterlimit="10" stroke-linecap="round" stroke-linejoin="round"/>
<path d="M432.039 160.197C434.779 147.604 423.327 135.74 406.461 133.697C389.594 131.655 373.7 140.209 370.961 152.802C368.221 165.396 379.673 177.26 396.539 179.302C413.406 181.345 429.3 172.791 432.039 160.197Z" fill="#6842C2"/>
<path d="M418.435 159.533C420.644 152.554 414.857 145.562 405.51 143.915C396.163 142.269 386.795 146.591 384.586 153.57C382.377 160.549 388.163 167.541 397.511 169.188C406.858 170.835 416.226 166.512 418.435 159.533Z" fill="#6842C2" stroke="white" stroke-width="2" stroke-miterlimit="10" stroke-linecap="round" stroke-linejoin="round"/>
<path d="M401.479 148.015V156.506L395.477 160.988" fill="#6842C2"/>
<path d="M401.479 148.015V156.506L395.477 160.988" stroke="white" stroke-width="2" stroke-miterlimit="10" stroke-linecap="round" stroke-linejoin="round"/>
<path d="M401.479 143.521V144.765" stroke="white" stroke-width="2" stroke-miterlimit="10" stroke-linecap="round" stroke-linejoin="round"/>
<path d="M401.479 168.258V169.491" stroke="white" stroke-width="2" stroke-miterlimit="10" stroke-linecap="round" stroke-linejoin="round"/>
<path d="M418.871 156.506H417.203" stroke="white" stroke-width="2" stroke-miterlimit="10" stroke-linecap="round" stroke-linejoin="round"/>
<path d="M385.758 156.506H384.09" stroke="white" stroke-width="2" stroke-miterlimit="10" stroke-linecap="round" stroke-linejoin="round"/>
<path d="M143.14 256.825H81.4894C78.4529 256.825 76 254.36 76 251.328V221.497C76 218.456 78.462 216 81.4894 216H143.14C146.177 216 148.629 218.465 148.629 221.497V251.319C148.639 254.36 146.177 256.825 143.14 256.825Z" fill="#6842C2"/>
<path d="M82.5371 246.279C88.2818 246.279 88.2818 239.43 94.0265 239.43C99.7712 239.43 99.7712 230.299 105.516 230.299C111.261 230.299 111.261 233.796 117.005 233.796C122.75 233.796 122.75 225.35 128.495 225.35C134.239 225.35 134.239 238.599 139.984 238.599" stroke="white" stroke-width="2" stroke-miterlimit="10" stroke-linecap="round" stroke-linejoin="round"/>
<path d="M84.2147 246.278C84.2147 245.356 83.4671 244.608 82.5463 244.608C81.6255 244.608 80.8779 245.356 80.8779 246.278C80.8779 247.2 81.6255 247.949 82.5463 247.949C83.4671 247.949 84.2147 247.2 84.2147 246.278Z" fill="white"/>
<path d="M141.662 238.608C141.662 237.686 140.914 236.938 139.994 236.938C139.073 236.938 138.325 237.686 138.325 238.608C138.325 239.53 139.073 240.279 139.994 240.279C140.914 240.279 141.662 239.53 141.662 238.608Z" fill="white"/>
<path d="M475.559 89H453.441C449.331 89 446 85.939 446 82.1625V61.8375C446 58.0611 449.331 55 453.441 55H475.559C479.669 55 483 58.0611 483 61.8375V82.1625C483 85.939 479.669 89 475.559 89Z" fill="#6842C2"/>
<path d="M477.089 70.2457L476.54 68.0173C476.438 67.5834 475.953 67.3136 475.481 67.4075L474.051 67.7124C473.681 67.7945 473.311 67.6303 473.107 67.3371C472.545 66.5278 471.856 65.8007 471.065 65.1908C470.746 64.9445 470.644 64.5458 470.822 64.2057L471.537 62.8569C471.754 62.4582 471.562 61.9656 471.129 61.7779L468.882 60.781C468.448 60.5816 467.912 60.7576 467.708 61.1563L466.942 62.6224C466.776 62.9507 466.381 63.1149 465.998 63.068C465.526 63.0094 465.028 62.9742 464.543 62.9742C464.045 62.9742 463.56 63.0094 463.088 63.068C462.692 63.1149 462.309 62.9507 462.143 62.6224L461.378 61.1563C461.161 60.7576 460.637 60.5816 460.203 60.781L457.957 61.7779C457.523 61.9773 457.332 62.4582 457.549 62.8569L458.263 64.2057C458.442 64.5458 458.327 64.9445 458.021 65.1908C457.23 65.8124 456.528 66.5278 455.979 67.3371C455.775 67.6303 455.405 67.7945 455.034 67.7124L453.605 67.4075C453.133 67.3136 452.66 67.5834 452.546 68.0173L451.997 70.2457C451.895 70.6796 452.188 71.1136 452.66 71.2191L454.473 71.5944C454.46 71.829 454.435 72.0518 454.435 72.2864C454.435 73.4005 454.652 74.4795 455.047 75.4647C455.175 75.7931 455.085 76.1684 454.779 76.3912L454.077 76.9073C453.694 77.1888 453.63 77.6931 453.937 78.0449L455.417 79.8393C455.724 80.1912 456.272 80.2498 456.655 79.9683L457.14 79.6048C457.472 79.3702 457.932 79.3819 458.251 79.6165C459.272 80.3436 460.433 80.9066 461.709 81.2467C462.092 81.3523 462.373 81.6572 462.373 82.0325V82.5016C462.373 82.9473 462.769 83.3109 463.254 83.3109H465.743C466.228 83.3109 466.623 82.9473 466.623 82.5016V82.0325C466.623 81.6572 466.904 81.3523 467.287 81.2467C468.563 80.9066 469.725 80.3554 470.746 79.6165C471.078 79.3819 471.537 79.3585 471.856 79.6048L472.341 79.9683C472.724 80.2498 473.273 80.1912 473.579 79.8393L475.136 78.0566C475.442 77.7048 475.379 77.2005 474.996 76.919L474.294 76.403C473.987 76.1801 473.898 75.8048 474.026 75.4764C474.421 74.4795 474.638 73.4123 474.638 72.2981C474.638 72.0635 474.613 71.8407 474.6 71.6061L476.412 71.2308C476.897 71.1136 477.191 70.6796 477.089 70.2457ZM464.505 78.0801C461.02 78.0801 458.2 75.4882 458.2 72.2864C458.2 69.0846 461.02 66.4927 464.505 66.4927C467.989 66.4927 470.809 69.0846 470.809 72.2864C470.809 75.4882 467.989 78.0801 464.505 78.0801Z" fill="white"/>
<path d="M2.928 127.927C2.928 128.442 2.76695 128.89 2.52955 129.199C2.29256 129.507 1.99989 129.657 1.714 129.657C1.42811 129.657 1.13543 129.507 0.898443 129.199C0.661043 128.89 0.5 128.442 0.5 127.927C0.5 127.412 0.661043 126.964 0.898444 126.655C1.13544 126.346 1.42811 126.197 1.714 126.197C1.99989 126.197 2.29256 126.346 2.52955 126.655C2.76695 126.964 2.928 127.412 2.928 127.927Z" fill="#9871F5" stroke="#9871F5"/>
<path d="M14.9007 127.927C14.9007 128.442 14.7396 128.89 14.5022 129.199C14.2652 129.507 13.9725 129.657 13.6867 129.657C13.4008 129.657 13.1081 129.507 12.8711 129.199C12.6337 128.89 12.4727 128.442 12.4727 127.927C12.4727 127.412 12.6337 126.964 12.8711 126.655C13.1081 126.346 13.4008 126.197 13.6867 126.197C13.9725 126.197 14.2652 126.346 14.5022 126.655C14.7396 126.964 14.9007 127.412 14.9007 127.927Z" fill="#9871F5" stroke="#9871F5"/>
<path d="M26.8645 127.927C26.8645 128.442 26.7035 128.89 26.4661 129.199C26.2291 129.507 25.9364 129.657 25.6505 129.657C25.3646 129.657 25.072 129.507 24.835 129.199C24.5976 128.89 24.4365 128.442 24.4365 127.927C24.4365 127.412 24.5976 126.964 24.835 126.655C25.072 126.346 25.3646 126.197 25.6505 126.197C25.9364 126.197 26.2291 126.346 26.4661 126.655C26.7035 126.964 26.8645 127.412 26.8645 127.927Z" fill="#9871F5" stroke="#9871F5"/>
<path d="M38.8372 127.927C38.8372 128.442 38.6761 128.89 38.4387 129.199C38.2017 129.507 37.9091 129.657 37.6232 129.657C37.3373 129.657 37.0446 129.507 36.8076 129.199C36.5702 128.89 36.4092 128.442 36.4092 127.927C36.4092 127.412 36.5702 126.964 36.8076 126.655C37.0446 126.346 37.3373 126.197 37.6232 126.197C37.9091 126.197 38.2017 126.346 38.4387 126.655C38.6761 126.964 38.8372 127.412 38.8372 127.927Z" fill="#9871F5" stroke="#9871F5"/>
<path d="M50.801 127.927C50.801 128.442 50.64 128.89 50.4026 129.199C50.1656 129.507 49.8729 129.657 49.587 129.657C49.3012 129.657 49.0085 129.507 48.7715 129.199C48.5341 128.89 48.373 128.442 48.373 127.927C48.373 127.412 48.5341 126.964 48.7715 126.655C49.0085 126.346 49.3012 126.197 49.587 126.197C49.8729 126.197 50.1656 126.346 50.4026 126.655C50.64 126.964 50.801 127.412 50.801 127.927Z" fill="#9871F5" stroke="#9871F5"/>
<path d="M62.7737 127.927C62.7737 128.442 62.6127 128.89 62.3753 129.199C62.1383 129.507 61.8456 129.657 61.5597 129.657C61.2738 129.657 60.9811 129.507 60.7441 129.199C60.5067 128.89 60.3457 128.442 60.3457 127.927C60.3457 127.412 60.5067 126.964 60.7441 126.655C60.9811 126.346 61.2738 126.197 61.5597 126.197C61.8456 126.197 62.1383 126.346 62.3753 126.655C62.6127 126.964 62.7737 127.412 62.7737 127.927Z" fill="#9871F5" stroke="#9871F5"/>
<path d="M2.928 143.491C2.928 144.006 2.76695 144.455 2.52955 144.763C2.29256 145.072 1.99989 145.221 1.714 145.221C1.42811 145.221 1.13544 145.072 0.898444 144.763C0.661043 144.455 0.5 144.006 0.5 143.491C0.5 142.976 0.661043 142.528 0.898444 142.219C1.13544 141.911 1.42811 141.761 1.714 141.761C1.99989 141.761 2.29256 141.911 2.52955 142.219C2.76695 142.528 2.928 142.976 2.928 143.491Z" fill="#9871F5" stroke="#9871F5"/>
<path d="M14.9007 143.491C14.9007 144.006 14.7396 144.455 14.5022 144.763C14.2652 145.072 13.9725 145.221 13.6867 145.221C13.4008 145.221 13.1081 145.072 12.8711 144.763C12.6337 144.455 12.4727 144.006 12.4727 143.491C12.4727 142.976 12.6337 142.528 12.8711 142.219C13.1081 141.911 13.4008 141.761 13.6867 141.761C13.9725 141.761 14.2652 141.911 14.5022 142.219C14.7396 142.528 14.9007 142.976 14.9007 143.491Z" fill="#9871F5" stroke="#9871F5"/>
<path d="M26.8645 143.491C26.8645 144.006 26.7035 144.455 26.4661 144.763C26.2291 145.072 25.9364 145.221 25.6505 145.221C25.3646 145.221 25.072 145.072 24.835 144.763C24.5976 144.455 24.4365 144.006 24.4365 143.491C24.4365 142.976 24.5976 142.528 24.835 142.219C25.072 141.911 25.3646 141.761 25.6505 141.761C25.9364 141.761 26.2291 141.911 26.4661 142.219C26.7035 142.528 26.8645 142.976 26.8645 143.491Z" fill="#9871F5" stroke="#9871F5"/>
<path d="M38.8372 143.491C38.8372 144.006 38.6761 144.455 38.4387 144.763C38.2017 145.072 37.9091 145.221 37.6232 145.221C37.3373 145.221 37.0446 145.072 36.8076 144.763C36.5702 144.455 36.4092 144.006 36.4092 143.491C36.4092 142.976 36.5702 142.528 36.8076 142.219C37.0446 141.911 37.3373 141.761 37.6232 141.761C37.9091 141.761 38.2017 141.911 38.4387 142.219C38.6761 142.528 38.8372 142.976 38.8372 143.491Z" fill="#9871F5" stroke="#9871F5"/>
<path d="M50.801 143.491C50.801 144.006 50.64 144.455 50.4026 144.763C50.1656 145.072 49.8729 145.221 49.587 145.221C49.3012 145.221 49.0085 145.072 48.7715 144.763C48.5341 144.455 48.373 144.006 48.373 143.491C48.373 142.976 48.5341 142.528 48.7715 142.219C49.0085 141.911 49.3012 141.761 49.587 141.761C49.8729 141.761 50.1656 141.911 50.4026 142.219C50.64 142.528 50.801 142.976 50.801 143.491Z" fill="#9871F5" stroke="#9871F5"/>
<path d="M62.7737 143.491C62.7737 144.006 62.6127 144.455 62.3753 144.763C62.1383 145.072 61.8456 145.221 61.5597 145.221C61.2738 145.221 60.9811 145.072 60.7441 144.763C60.5067 144.455 60.3457 144.006 60.3457 143.491C60.3457 142.976 60.5067 142.528 60.7441 142.219C60.9811 141.911 61.2738 141.761 61.5597 141.761C61.8456 141.761 62.1383 141.911 62.3753 142.219C62.6127 142.528 62.7737 142.976 62.7737 143.491Z" fill="#9871F5" stroke="#9871F5"/>
<path d="M2.928 159.068C2.928 159.583 2.76695 160.031 2.52955 160.34C2.29256 160.648 1.99989 160.798 1.714 160.798C1.42811 160.798 1.13543 160.648 0.898443 160.34C0.661043 160.031 0.5 159.583 0.5 159.068C0.5 158.553 0.661043 158.105 0.898444 157.796C1.13544 157.487 1.42811 157.338 1.714 157.338C1.99989 157.338 2.29256 157.487 2.52955 157.796C2.76695 158.105 2.928 158.553 2.928 159.068Z" fill="#9871F5" stroke="#9871F5"/>
<path d="M14.9007 159.068C14.9007 159.583 14.7396 160.031 14.5022 160.34C14.2652 160.648 13.9725 160.798 13.6867 160.798C13.4008 160.798 13.1081 160.648 12.8711 160.34C12.6337 160.031 12.4727 159.583 12.4727 159.068C12.4727 158.553 12.6337 158.105 12.8711 157.796C13.1081 157.487 13.4008 157.338 13.6867 157.338C13.9725 157.338 14.2652 157.487 14.5022 157.796C14.7396 158.105 14.9007 158.553 14.9007 159.068Z" fill="#9871F5" stroke="#9871F5"/>
<path d="M26.8645 159.068C26.8645 159.583 26.7035 160.031 26.4661 160.34C26.2291 160.648 25.9364 160.798 25.6505 160.798C25.3646 160.798 25.072 160.648 24.835 160.34C24.5976 160.031 24.4365 159.583 24.4365 159.068C24.4365 158.553 24.5976 158.105 24.835 157.796C25.072 157.487 25.3646 157.338 25.6505 157.338C25.9364 157.338 26.2291 157.487 26.4661 157.796C26.7035 158.105 26.8645 158.553 26.8645 159.068Z" fill="#9871F5" stroke="#9871F5"/>
<path d="M38.8372 159.068C38.8372 159.583 38.6761 160.031 38.4387 160.34C38.2017 160.648 37.9091 160.798 37.6232 160.798C37.3373 160.798 37.0446 160.648 36.8076 160.34C36.5702 160.031 36.4092 159.583 36.4092 159.068C36.4092 158.553 36.5702 158.105 36.8076 157.796C37.0446 157.487 37.3373 157.338 37.6232 157.338C37.9091 157.338 38.2017 157.487 38.4387 157.796C38.6761 158.105 38.8372 158.553 38.8372 159.068Z" fill="#9871F5" stroke="#9871F5"/>
<path d="M50.801 159.068C50.801 159.583 50.64 160.031 50.4026 160.34C50.1656 160.648 49.8729 160.798 49.587 160.798C49.3012 160.798 49.0085 160.648 48.7715 160.34C48.5341 160.031 48.373 159.583 48.373 159.068C48.373 158.553 48.5341 158.105 48.7715 157.796C49.0085 157.487 49.3012 157.338 49.587 157.338C49.8729 157.338 50.1656 157.487 50.4026 157.796C50.64 158.105 50.801 158.553 50.801 159.068Z" fill="#9871F5" stroke="#9871F5"/>
<path d="M62.7737 159.068C62.7737 159.583 62.6127 160.031 62.3753 160.34C62.1383 160.648 61.8456 160.798 61.5597 160.798C61.2738 160.798 60.9811 160.648 60.7441 160.34C60.5067 160.031 60.3457 159.583 60.3457 159.068C60.3457 158.553 60.5067 158.105 60.7441 157.796C60.9811 157.487 61.2738 157.338 61.5597 157.338C61.8456 157.338 62.1383 157.487 62.3753 157.796C62.6127 158.105 62.7737 158.553 62.7737 159.068Z" fill="#9871F5" stroke="#9871F5"/>
<path d="M2.928 174.633C2.928 175.148 2.76695 175.596 2.52955 175.905C2.29256 176.213 1.99989 176.362 1.714 176.362C1.42811 176.362 1.13544 176.213 0.898445 175.905C0.661043 175.596 0.5 175.148 0.5 174.633C0.5 174.117 0.661043 173.669 0.898445 173.36C1.13544 173.052 1.42811 172.903 1.714 172.903C1.99989 172.903 2.29256 173.052 2.52955 173.36C2.76695 173.669 2.928 174.117 2.928 174.633Z" fill="#9871F5" stroke="#9871F5"/>
<path d="M14.9007 174.633C14.9007 175.148 14.7396 175.596 14.5022 175.905C14.2652 176.213 13.9725 176.362 13.6867 176.362C13.4008 176.362 13.1081 176.213 12.8711 175.905C12.6337 175.596 12.4727 175.148 12.4727 174.633C12.4727 174.117 12.6337 173.669 12.8711 173.36C13.1081 173.052 13.4008 172.903 13.6867 172.903C13.9725 172.903 14.2652 173.052 14.5022 173.36C14.7396 173.669 14.9007 174.117 14.9007 174.633Z" fill="#9871F5" stroke="#9871F5"/>
<path d="M26.8645 174.633C26.8645 175.148 26.7035 175.596 26.4661 175.905C26.2291 176.213 25.9364 176.362 25.6505 176.362C25.3646 176.362 25.072 176.213 24.835 175.905C24.5976 175.596 24.4365 175.148 24.4365 174.633C24.4365 174.117 24.5976 173.669 24.835 173.36C25.072 173.052 25.3646 172.903 25.6505 172.903C25.9364 172.903 26.2291 173.052 26.4661 173.36C26.7035 173.669 26.8645 174.117 26.8645 174.633Z" fill="#9871F5" stroke="#9871F5"/>
<path d="M38.8372 174.633C38.8372 175.148 38.6761 175.596 38.4387 175.905C38.2017 176.213 37.9091 176.362 37.6232 176.362C37.3373 176.362 37.0446 176.213 36.8076 175.905C36.5702 175.596 36.4092 175.148 36.4092 174.633C36.4092 174.117 36.5702 173.669 36.8076 173.36C37.0446 173.052 37.3373 172.903 37.6232 172.903C37.9091 172.903 38.2017 173.052 38.4387 173.36C38.6761 173.669 38.8372 174.117 38.8372 174.633Z" fill="#9871F5" stroke="#9871F5"/>
<path d="M50.801 174.633C50.801 175.148 50.64 175.596 50.4026 175.905C50.1656 176.213 49.8729 176.362 49.587 176.362C49.3012 176.362 49.0085 176.213 48.7715 175.905C48.5341 175.596 48.373 175.148 48.373 174.633C48.373 174.117 48.5341 173.669 48.7715 173.36C49.0085 173.052 49.3012 172.903 49.587 172.903C49.8729 172.903 50.1656 173.052 50.4026 173.36C50.64 173.669 50.801 174.117 50.801 174.633Z" fill="#9871F5" stroke="#9871F5"/>
<path d="M62.7737 174.633C62.7737 175.148 62.6127 175.596 62.3753 175.905C62.1383 176.213 61.8456 176.362 61.5597 176.362C61.2738 176.362 60.9811 176.213 60.7441 175.905C60.5067 175.596 60.3457 175.148 60.3457 174.633C60.3457 174.117 60.5067 173.669 60.7441 173.36C60.9811 173.052 61.2738 172.903 61.5597 172.903C61.8456 172.903 62.1383 173.052 62.3753 173.36C62.6127 173.669 62.7737 174.117 62.7737 174.633Z" fill="#9871F5" stroke="#9871F5"/>
<path d="M187.623 421.194C187.623 421.709 187.462 422.157 187.225 422.466C186.988 422.774 186.695 422.924 186.409 422.924C186.123 422.924 185.831 422.774 185.594 422.466C185.356 422.157 185.195 421.709 185.195 421.194C185.195 420.678 185.356 420.23 185.594 419.922C185.831 419.613 186.123 419.464 186.409 419.464C186.695 419.464 186.988 419.613 187.225 419.922C187.462 420.23 187.623 420.678 187.623 421.194Z" fill="#9871F5" stroke="#9871F5"/>
<path d="M199.596 421.194C199.596 421.709 199.435 422.157 199.197 422.466C198.96 422.774 198.668 422.924 198.382 422.924C198.096 422.924 197.803 422.774 197.566 422.466C197.329 422.157 197.168 421.709 197.168 421.194C197.168 420.678 197.329 420.23 197.566 419.922C197.803 419.613 198.096 419.464 198.382 419.464C198.668 419.464 198.96 419.613 199.197 419.922C199.435 420.23 199.596 420.678 199.596 421.194Z" fill="#9871F5" stroke="#9871F5"/>
<path d="M211.56 421.194C211.56 421.709 211.399 422.157 211.161 422.466C210.924 422.774 210.632 422.924 210.346 422.924C210.06 422.924 209.767 422.774 209.53 422.466C209.293 422.157 209.132 421.709 209.132 421.194C209.132 420.678 209.293 420.23 209.53 419.922C209.767 419.613 210.06 419.464 210.346 419.464C210.632 419.464 210.924 419.613 211.161 419.922C211.399 420.23 211.56 420.678 211.56 421.194Z" fill="#9871F5" stroke="#9871F5"/>
<path d="M223.533 421.194C223.533 421.709 223.371 422.157 223.134 422.466C222.897 422.774 222.604 422.924 222.318 422.924C222.033 422.924 221.74 422.774 221.503 422.466C221.266 422.157 221.104 421.709 221.104 421.194C221.104 420.678 221.266 420.23 221.503 419.922C221.74 419.613 222.033 419.464 222.318 419.464C222.604 419.464 222.897 419.613 223.134 419.922C223.371 420.23 223.533 420.678 223.533 421.194Z" fill="#9871F5" stroke="#9871F5"/>
<path d="M235.496 421.194C235.496 421.709 235.335 422.157 235.098 422.466C234.861 422.774 234.568 422.924 234.282 422.924C233.996 422.924 233.704 422.774 233.467 422.466C233.229 422.157 233.068 421.709 233.068 421.194C233.068 420.678 233.229 420.23 233.467 419.922C233.704 419.613 233.996 419.464 234.282 419.464C234.568 419.464 234.861 419.613 235.098 419.922C235.335 420.23 235.496 420.678 235.496 421.194Z" fill="#9871F5" stroke="#9871F5"/>
<path d="M187.623 436.77C187.623 437.285 187.462 437.733 187.225 438.042C186.988 438.35 186.695 438.5 186.409 438.5C186.123 438.5 185.831 438.35 185.594 438.042C185.356 437.733 185.195 437.285 185.195 436.77C185.195 436.255 185.356 435.807 185.594 435.498C185.831 435.19 186.123 435.04 186.409 435.04C186.695 435.04 186.988 435.19 187.225 435.498C187.462 435.807 187.623 436.255 187.623 436.77Z" fill="#9871F5" stroke="#9871F5"/>
<path d="M199.596 436.77C199.596 437.285 199.435 437.733 199.197 438.042C198.96 438.35 198.668 438.5 198.382 438.5C198.096 438.5 197.803 438.35 197.566 438.042C197.329 437.733 197.168 437.285 197.168 436.77C197.168 436.255 197.329 435.807 197.566 435.498C197.803 435.19 198.096 435.04 198.382 435.04C198.668 435.04 198.96 435.19 199.197 435.498C199.435 435.807 199.596 436.255 199.596 436.77Z" fill="#9871F5" stroke="#9871F5"/>
<path d="M211.56 436.77C211.56 437.285 211.399 437.733 211.161 438.042C210.924 438.35 210.632 438.5 210.346 438.5C210.06 438.5 209.767 438.35 209.53 438.042C209.293 437.733 209.132 437.285 209.132 436.77C209.132 436.255 209.293 435.807 209.53 435.498C209.767 435.19 210.06 435.04 210.346 435.04C210.632 435.04 210.924 435.19 211.161 435.498C211.399 435.807 211.56 436.255 211.56 436.77Z" fill="#9871F5" stroke="#9871F5"/>
<path d="M223.533 436.77C223.533 437.285 223.371 437.733 223.134 438.042C222.897 438.35 222.604 438.5 222.318 438.5C222.033 438.5 221.74 438.35 221.503 438.042C221.266 437.733 221.104 437.285 221.104 436.77C221.104 436.255 221.266 435.807 221.503 435.498C221.74 435.19 222.033 435.04 222.318 435.04C222.604 435.04 222.897 435.19 223.134 435.498C223.371 435.807 223.533 436.255 223.533 436.77Z" fill="#9871F5" stroke="#9871F5"/>
<path d="M235.496 436.77C235.496 437.285 235.335 437.733 235.098 438.042C234.861 438.35 234.568 438.5 234.282 438.5C233.996 438.5 233.704 438.35 233.467 438.042C233.229 437.733 233.068 437.285 233.068 436.77C233.068 436.255 233.229 435.807 233.467 435.498C233.704 435.19 233.996 435.04 234.282 435.04C234.568 435.04 234.861 435.19 235.098 435.498C235.335 435.807 235.496 436.255 235.496 436.77Z" fill="#9871F5" stroke="#9871F5"/>
<path d="M490.93 31.6979C490.93 32.2131 490.769 32.6612 490.532 32.97C490.295 33.2783 490.002 33.4278 489.716 33.4278C489.43 33.4278 489.137 33.2783 488.9 32.97C488.663 32.6612 488.502 32.2131 488.502 31.6979C488.502 31.1828 488.663 30.7347 488.9 30.4259C489.137 30.1175 489.43 29.968 489.716 29.968C490.002 29.968 490.295 30.1175 490.532 30.4259C490.769 30.7347 490.93 31.1828 490.93 31.6979Z" fill="#9871F5" stroke="#9871F5"/>
<path d="M502.894 31.6979C502.894 32.2131 502.733 32.6612 502.495 32.97C502.258 33.2783 501.966 33.4278 501.68 33.4278C501.394 33.4278 501.101 33.2783 500.864 32.97C500.627 32.6612 500.466 32.2131 500.466 31.6979C500.466 31.1828 500.627 30.7347 500.864 30.4259C501.101 30.1175 501.394 29.968 501.68 29.968C501.966 29.968 502.258 30.1175 502.495 30.4259C502.733 30.7347 502.894 31.1828 502.894 31.6979Z" fill="#9871F5" stroke="#9871F5"/>
<path d="M514.866 31.6979C514.866 32.2131 514.705 32.6612 514.468 32.97C514.231 33.2783 513.938 33.4278 513.652 33.4278C513.367 33.4278 513.074 33.2783 512.837 32.97C512.6 32.6612 512.438 32.2131 512.438 31.6979C512.438 31.1828 512.6 30.7347 512.837 30.4259C513.074 30.1175 513.367 29.968 513.652 29.968C513.938 29.968 514.231 30.1175 514.468 30.4259C514.705 30.7347 514.866 31.1828 514.866 31.6979Z" fill="#9871F5" stroke="#9871F5"/>
<path d="M490.93 47.2744C490.93 47.7896 490.769 48.2377 490.532 48.5465C490.295 48.8548 490.002 49.0044 489.716 49.0044C489.43 49.0044 489.137 48.8548 488.9 48.5465C488.663 48.2377 488.502 47.7896 488.502 47.2744C488.502 46.7593 488.663 46.3112 488.9 46.0024C489.137 45.694 489.43 45.5445 489.716 45.5445C490.002 45.5445 490.295 45.694 490.532 46.0024C490.769 46.3112 490.93 46.7593 490.93 47.2744Z" fill="#9871F5" stroke="#9871F5"/>
<path d="M502.894 47.2744C502.894 47.7896 502.733 48.2377 502.495 48.5465C502.258 48.8548 501.966 49.0044 501.68 49.0044C501.394 49.0044 501.101 48.8548 500.864 48.5465C500.627 48.2377 500.466 47.7896 500.466 47.2744C500.466 46.7593 500.627 46.3112 500.864 46.0024C501.101 45.694 501.394 45.5445 501.68 45.5445C501.966 45.5445 502.258 45.694 502.495 46.0024C502.733 46.3112 502.894 46.7593 502.894 47.2744Z" fill="#9871F5" stroke="#9871F5"/>
<path d="M514.866 47.2744C514.866 47.7896 514.705 48.2377 514.468 48.5465C514.231 48.8548 513.938 49.0044 513.652 49.0044C513.367 49.0044 513.074 48.8548 512.837 48.5465C512.6 48.2377 512.438 47.7896 512.438 47.2744C512.438 46.7593 512.6 46.3112 512.837 46.0024C513.074 45.694 513.367 45.5445 513.652 45.5445C513.938 45.5445 514.231 45.694 514.468 46.0023C514.705 46.3112 514.866 46.7593 514.866 47.2744Z" fill="#9871F5" stroke="#9871F5"/>
<path d="M177.582 2.22991C177.582 2.74505 177.421 3.19313 177.184 3.50199C176.947 3.81031 176.654 3.95982 176.368 3.95982C176.082 3.95982 175.79 3.81031 175.553 3.50198C175.315 3.19312 175.154 2.74504 175.154 2.22991C175.154 1.71477 175.315 1.26669 175.553 0.957836C175.79 0.64951 176.082 0.5 176.368 0.5C176.654 0.5 176.947 0.649506 177.184 0.957827C177.421 1.26668 177.582 1.71476 177.582 2.22991Z" fill="#9871F5" stroke="#9871F5"/>
<path d="M189.546 2.22991C189.546 2.74504 189.385 3.19313 189.148 3.50198C188.911 3.81031 188.618 3.95982 188.332 3.95982C188.046 3.95982 187.754 3.81031 187.517 3.50198C187.279 3.19313 187.118 2.74504 187.118 2.22991C187.118 1.71477 187.279 1.26669 187.517 0.957833C187.754 0.649506 188.046 0.5 188.332 0.5C188.618 0.5 188.911 0.649506 189.148 0.957833C189.385 1.26669 189.546 1.71477 189.546 2.22991Z" fill="#9871F5" stroke="#9871F5"/>
<path d="M201.519 2.22991C201.519 2.74505 201.358 3.19314 201.12 3.50199C200.883 3.81031 200.591 3.95982 200.305 3.95982C200.019 3.95982 199.726 3.81031 199.489 3.50198C199.252 3.19313 199.091 2.74504 199.091 2.22991C199.091 1.71477 199.252 1.26669 199.489 0.957833C199.726 0.649506 200.019 0.5 200.305 0.5C200.591 0.5 200.883 0.649502 201.12 0.957824C201.358 1.26668 201.519 1.71476 201.519 2.22991Z" fill="#9871F5" stroke="#9871F5"/>
<path d="M177.582 17.8064C177.582 18.3215 177.421 18.7696 177.184 19.0785C176.947 19.3868 176.654 19.5363 176.368 19.5363C176.082 19.5363 175.79 19.3868 175.553 19.0784C175.315 18.7696 175.154 18.3215 175.154 17.8064C175.154 17.2912 175.315 16.8432 175.553 16.5343C175.79 16.226 176.082 16.0765 176.368 16.0765C176.654 16.0765 176.947 16.226 177.184 16.5343C177.421 16.8431 177.582 17.2912 177.582 17.8064Z" fill="#9871F5" stroke="#9871F5"/>
<path d="M189.546 17.8064C189.546 18.3216 189.385 18.7696 189.148 19.0785C188.911 19.3868 188.618 19.5363 188.332 19.5363C188.046 19.5363 187.754 19.3868 187.517 19.0785C187.279 18.7696 187.118 18.3216 187.118 17.8064C187.118 17.2913 187.279 16.8432 187.517 16.5343C187.754 16.226 188.046 16.0765 188.332 16.0765C188.618 16.0765 188.911 16.226 189.148 16.5343C189.385 16.8432 189.546 17.2913 189.546 17.8064Z" fill="#9871F5" stroke="#9871F5"/>
<path d="M201.519 17.8064C201.519 18.3216 201.358 18.7696 201.12 19.0785C200.883 19.3868 200.591 19.5363 200.305 19.5363C200.019 19.5363 199.726 19.3868 199.489 19.0785C199.252 18.7696 199.091 18.3216 199.091 17.8064C199.091 17.2913 199.252 16.8432 199.489 16.5343C199.726 16.226 200.019 16.0765 200.305 16.0765C200.591 16.0765 200.883 16.226 201.12 16.5343C201.358 16.8432 201.519 17.2913 201.519 17.8064Z" fill="#9871F5" stroke="#9871F5"/>
<path d="M598.5 242.175C598.5 242.69 598.339 243.138 598.102 243.447C597.865 243.755 597.572 243.905 597.286 243.905C597 243.905 596.708 243.755 596.471 243.447C596.233 243.138 596.072 242.69 596.072 242.175C596.072 241.66 596.233 241.212 596.471 240.903C596.708 240.595 597 240.445 597.286 240.445C597.572 240.445 597.865 240.595 598.102 240.903C598.339 241.212 598.5 241.66 598.5 242.175Z" fill="#9871F5" stroke="#9871F5"/>
<path d="M598.5 257.751C598.5 258.266 598.339 258.715 598.102 259.023C597.865 259.332 597.572 259.481 597.286 259.481C597 259.481 596.708 259.332 596.471 259.023C596.233 258.715 596.072 258.266 596.072 257.751C596.072 257.236 596.233 256.788 596.471 256.479C596.708 256.171 597 256.021 597.286 256.021C597.572 256.021 597.865 256.171 598.102 256.479C598.339 256.788 598.5 257.236 598.5 257.751Z" fill="#9871F5" stroke="#9871F5"/>
<path d="M598.5 273.316C598.5 273.831 598.339 274.279 598.102 274.588C597.865 274.896 597.572 275.046 597.286 275.046C597 275.046 596.708 274.896 596.471 274.588C596.233 274.279 596.072 273.831 596.072 273.316C596.072 272.801 596.233 272.353 596.471 272.044C596.708 271.736 597 271.586 597.286 271.586C597.572 271.586 597.865 271.736 598.102 272.044C598.339 272.353 598.5 272.801 598.5 273.316Z" fill="#9871F5" stroke="#9871F5"/>
<path d="M598.5 288.892C598.5 289.408 598.339 289.856 598.102 290.165C597.865 290.473 597.572 290.622 597.286 290.622C597 290.622 596.708 290.473 596.471 290.165C596.233 289.856 596.072 289.408 596.072 288.892C596.072 288.377 596.233 287.929 596.471 287.62C596.708 287.312 597 287.163 597.286 287.163C597.572 287.163 597.865 287.312 598.102 287.62C598.339 287.929 598.5 288.377 598.5 288.892Z" fill="#9871F5" stroke="#9871F5"/>
<path d="M598.5 304.457C598.5 304.972 598.339 305.42 598.102 305.729C597.865 306.038 597.572 306.187 597.286 306.187C597 306.187 596.708 306.038 596.471 305.729C596.233 305.42 596.072 304.972 596.072 304.457C596.072 303.942 596.233 303.494 596.471 303.185C596.708 302.877 597 302.727 597.286 302.727C597.572 302.727 597.865 302.877 598.102 303.185C598.339 303.494 598.5 303.942 598.5 304.457Z" fill="#9871F5" stroke="#9871F5"/>
<path d="M598.5 320.034C598.5 320.549 598.339 320.997 598.102 321.306C597.865 321.614 597.572 321.763 597.286 321.763C597 321.763 596.708 321.614 596.471 321.306C596.233 320.997 596.072 320.549 596.072 320.034C596.072 319.518 596.233 319.07 596.471 318.761C596.708 318.453 597 318.304 597.286 318.304C597.572 318.304 597.865 318.453 598.102 318.761C598.339 319.07 598.5 319.518 598.5 320.034Z" fill="#9871F5" stroke="#9871F5"/>
<path d="M598.5 335.598C598.5 336.113 598.339 336.561 598.102 336.87C597.865 337.179 597.572 337.328 597.286 337.328C597 337.328 596.708 337.179 596.471 336.87C596.233 336.561 596.072 336.113 596.072 335.598C596.072 335.083 596.233 334.635 596.471 334.326C596.708 334.018 597 333.868 597.286 333.868C597.572 333.868 597.865 334.018 598.102 334.326C598.339 334.635 598.5 335.083 598.5 335.598Z" fill="#9871F5" stroke="#9871F5"/>
<path d="M586.528 242.175C586.528 242.69 586.367 243.138 586.129 243.447C585.892 243.755 585.599 243.905 585.314 243.905C585.028 243.905 584.735 243.755 584.498 243.447C584.261 243.138 584.1 242.69 584.1 242.175C584.1 241.66 584.261 241.212 584.498 240.903C584.735 240.595 585.028 240.445 585.314 240.445C585.599 240.445 585.892 240.595 586.129 240.903C586.367 241.212 586.528 241.66 586.528 242.175Z" fill="#9871F5" stroke="#9871F5"/>
<path d="M586.528 257.751C586.528 258.266 586.367 258.715 586.129 259.023C585.892 259.332 585.599 259.481 585.314 259.481C585.028 259.481 584.735 259.332 584.498 259.023C584.261 258.715 584.1 258.266 584.1 257.751C584.1 257.236 584.261 256.788 584.498 256.479C584.735 256.171 585.028 256.021 585.314 256.021C585.599 256.021 585.892 256.171 586.129 256.479C586.367 256.788 586.528 257.236 586.528 257.751Z" fill="#9871F5" stroke="#9871F5"/>
<path d="M586.528 273.316C586.528 273.831 586.367 274.279 586.129 274.588C585.892 274.896 585.599 275.046 585.314 275.046C585.028 275.046 584.735 274.896 584.498 274.588C584.261 274.279 584.1 273.831 584.1 273.316C584.1 272.801 584.261 272.353 584.498 272.044C584.735 271.736 585.028 271.586 585.314 271.586C585.599 271.586 585.892 271.736 586.129 272.044C586.367 272.353 586.528 272.801 586.528 273.316Z" fill="#9871F5" stroke="#9871F5"/>
<path d="M586.528 288.892C586.528 289.408 586.367 289.856 586.129 290.165C585.892 290.473 585.599 290.622 585.314 290.622C585.028 290.622 584.735 290.473 584.498 290.165C584.261 289.856 584.1 289.408 584.1 288.892C584.1 288.377 584.261 287.929 584.498 287.62C584.735 287.312 585.028 287.163 585.314 287.163C585.599 287.163 585.892 287.312 586.129 287.62C586.367 287.929 586.528 288.377 586.528 288.892Z" fill="#9871F5" stroke="#9871F5"/>
<path d="M586.528 304.457C586.528 304.972 586.367 305.42 586.129 305.729C585.892 306.038 585.599 306.187 585.314 306.187C585.028 306.187 584.735 306.038 584.498 305.729C584.261 305.42 584.1 304.972 584.1 304.457C584.1 303.942 584.261 303.494 584.498 303.185C584.735 302.877 585.028 302.727 585.314 302.727C585.599 302.727 585.892 302.877 586.129 303.185C586.367 303.494 586.528 303.942 586.528 304.457Z" fill="#9871F5" stroke="#9871F5"/>
<path d="M586.528 320.034C586.528 320.549 586.367 320.997 586.129 321.306C585.892 321.614 585.599 321.763 585.314 321.763C585.028 321.763 584.735 321.614 584.498 321.306C584.261 320.997 584.1 320.549 584.1 320.034C584.1 319.518 584.261 319.07 584.498 318.761C584.735 318.453 585.028 318.304 585.314 318.304C585.599 318.304 585.892 318.453 586.129 318.761C586.367 319.07 586.528 319.518 586.528 320.034Z" fill="#9871F5" stroke="#9871F5"/>
<path d="M586.528 335.598C586.528 336.113 586.367 336.561 586.129 336.87C585.892 337.179 585.599 337.328 585.314 337.328C585.028 337.328 584.735 337.179 584.498 336.87C584.261 336.561 584.1 336.113 584.1 335.598C584.1 335.083 584.261 334.635 584.498 334.326C584.735 334.018 585.028 333.868 585.314 333.868C585.599 333.868 585.892 334.018 586.129 334.326C586.367 334.635 586.528 335.083 586.528 335.598Z" fill="#9871F5" stroke="#9871F5"/>
<path d="M574.564 242.175C574.564 242.69 574.403 243.138 574.165 243.447C573.928 243.755 573.636 243.905 573.35 243.905C573.064 243.905 572.771 243.755 572.534 243.447C572.297 243.138 572.136 242.69 572.136 242.175C572.136 241.66 572.297 241.212 572.534 240.903C572.771 240.595 573.064 240.445 573.35 240.445C573.636 240.445 573.928 240.595 574.165 240.903C574.403 241.212 574.564 241.66 574.564 242.175Z" fill="#9871F5" stroke="#9871F5"/>
<path d="M574.564 257.751C574.564 258.266 574.403 258.715 574.165 259.023C573.928 259.332 573.636 259.481 573.35 259.481C573.064 259.481 572.771 259.332 572.534 259.023C572.297 258.715 572.136 258.266 572.136 257.751C572.136 257.236 572.297 256.788 572.534 256.479C572.771 256.171 573.064 256.021 573.35 256.021C573.636 256.021 573.928 256.171 574.165 256.479C574.403 256.788 574.564 257.236 574.564 257.751Z" fill="#9871F5" stroke="#9871F5"/>
<path d="M574.564 273.316C574.564 273.831 574.403 274.279 574.165 274.588C573.928 274.896 573.636 275.046 573.35 275.046C573.064 275.046 572.771 274.896 572.534 274.588C572.297 274.279 572.136 273.831 572.136 273.316C572.136 272.801 572.297 272.353 572.534 272.044C572.771 271.736 573.064 271.586 573.35 271.586C573.636 271.586 573.928 271.736 574.165 272.044C574.403 272.353 574.564 272.801 574.564 273.316Z" fill="#9871F5" stroke="#9871F5"/>
<path d="M574.564 288.892C574.564 289.408 574.403 289.856 574.165 290.165C573.928 290.473 573.636 290.622 573.35 290.622C573.064 290.622 572.771 290.473 572.534 290.165C572.297 289.856 572.136 289.408 572.136 288.892C572.136 288.377 572.297 287.929 572.534 287.62C572.771 287.312 573.064 287.163 573.35 287.163C573.636 287.163 573.928 287.312 574.165 287.62C574.403 287.929 574.564 288.377 574.564 288.892Z" fill="#9871F5" stroke="#9871F5"/>
<path d="M574.564 304.457C574.564 304.972 574.403 305.42 574.165 305.729C573.928 306.038 573.636 306.187 573.35 306.187C573.064 306.187 572.771 306.038 572.534 305.729C572.297 305.42 572.136 304.972 572.136 304.457C572.136 303.942 572.297 303.494 572.534 303.185C572.771 302.877 573.064 302.727 573.35 302.727C573.636 302.727 573.928 302.877 574.165 303.185C574.403 303.494 574.564 303.942 574.564 304.457Z" fill="#9871F5" stroke="#9871F5"/>
<path d="M574.564 320.034C574.564 320.549 574.403 320.997 574.165 321.306C573.928 321.614 573.636 321.763 573.35 321.763C573.064 321.763 572.771 321.614 572.534 321.306C572.297 320.997 572.136 320.549 572.136 320.034C572.136 319.518 572.297 319.07 572.534 318.761C572.771 318.453 573.064 318.304 573.35 318.304C573.636 318.304 573.928 318.453 574.165 318.761C574.403 319.07 574.564 319.518 574.564 320.034Z" fill="#9871F5" stroke="#9871F5"/>
<path d="M574.564 335.598C574.564 336.113 574.403 336.561 574.165 336.87C573.928 337.179 573.636 337.328 573.35 337.328C573.064 337.328 572.771 337.179 572.534 336.87C572.297 336.561 572.136 336.113 572.136 335.598C572.136 335.083 572.297 334.635 572.534 334.326C572.771 334.018 573.064 333.868 573.35 333.868C573.636 333.868 573.928 334.018 574.165 334.326C574.403 334.635 574.564 335.083 574.564 335.598Z" fill="#9871F5" stroke="#9871F5"/>
<path d="M562.591 242.175C562.591 242.69 562.43 243.138 562.193 243.447C561.956 243.755 561.663 243.905 561.377 243.905C561.091 243.905 560.799 243.755 560.562 243.447C560.324 243.138 560.163 242.69 560.163 242.175C560.163 241.66 560.324 241.212 560.562 240.903C560.799 240.594 561.091 240.445 561.377 240.445C561.663 240.445 561.956 240.594 562.193 240.903C562.43 241.212 562.591 241.66 562.591 242.175Z" fill="#9871F5" stroke="#9871F5"/>
<path d="M562.591 257.751C562.591 258.267 562.43 258.715 562.193 259.023C561.956 259.332 561.663 259.481 561.377 259.481C561.091 259.481 560.799 259.332 560.562 259.023C560.324 258.715 560.163 258.267 560.163 257.751C560.163 257.236 560.324 256.788 560.562 256.479C560.799 256.171 561.091 256.021 561.377 256.021C561.663 256.021 561.956 256.171 562.193 256.479C562.43 256.788 562.591 257.236 562.591 257.751Z" fill="#9871F5" stroke="#9871F5"/>
<path d="M562.591 273.316C562.591 273.831 562.43 274.279 562.193 274.588C561.956 274.896 561.663 275.046 561.377 275.046C561.091 275.046 560.799 274.896 560.562 274.588C560.324 274.279 560.163 273.831 560.163 273.316C560.163 272.801 560.324 272.353 560.562 272.044C560.799 271.736 561.091 271.586 561.377 271.586C561.663 271.586 561.956 271.736 562.193 272.044C562.43 272.353 562.591 272.801 562.591 273.316Z" fill="#9871F5" stroke="#9871F5"/>
<path d="M562.591 288.892C562.591 289.408 562.43 289.856 562.193 290.165C561.956 290.473 561.663 290.622 561.377 290.622C561.091 290.622 560.799 290.473 560.562 290.165C560.324 289.856 560.163 289.408 560.163 288.892C560.163 288.377 560.324 287.929 560.562 287.62C560.799 287.312 561.091 287.163 561.377 287.163C561.663 287.163 561.956 287.312 562.193 287.62C562.43 287.929 562.591 288.377 562.591 288.892Z" fill="#9871F5" stroke="#9871F5"/>
<path d="M562.591 304.457C562.591 304.972 562.43 305.42 562.193 305.729C561.956 306.038 561.663 306.187 561.377 306.187C561.091 306.187 560.799 306.038 560.562 305.729C560.324 305.42 560.163 304.972 560.163 304.457C560.163 303.942 560.324 303.494 560.562 303.185C560.799 302.877 561.091 302.727 561.377 302.727C561.663 302.727 561.956 302.877 562.193 303.185C562.43 303.494 562.591 303.942 562.591 304.457Z" fill="#9871F5" stroke="#9871F5"/>
<path d="M562.591 320.034C562.591 320.549 562.43 320.997 562.193 321.306C561.956 321.614 561.663 321.763 561.377 321.763C561.091 321.763 560.799 321.614 560.562 321.306C560.324 320.997 560.163 320.549 560.163 320.034C560.163 319.518 560.324 319.07 560.562 318.761C560.799 318.453 561.091 318.304 561.377 318.304C561.663 318.304 561.956 318.453 562.193 318.761C562.43 319.07 562.591 319.518 562.591 320.034Z" fill="#9871F5" stroke="#9871F5"/>
<path d="M562.591 335.598C562.591 336.113 562.43 336.561 562.193 336.87C561.956 337.179 561.663 337.328 561.377 337.328C561.091 337.328 560.799 337.179 560.562 336.87C560.324 336.561 560.163 336.113 560.163 335.598C560.163 335.083 560.324 334.635 560.562 334.326C560.799 334.018 561.091 333.868 561.377 333.868C561.663 333.868 561.956 334.018 562.193 334.326C562.43 334.635 562.591 335.083 562.591 335.598Z" fill="#9871F5" stroke="#9871F5"/>
<path d="M258.165 395.464L254.024 432.123H275.506L286.665 395.464H258.165Z" fill="#FEC9CF"/>
<path d="M277.839 424.455C277.839 424.455 287.171 435.42 280.172 437.372C273.174 439.325 227.1 439.495 215.727 438.264C204.354 437.019 241.097 425.686 249.495 423.903C257.913 422.12 260.615 431.416 277.839 424.455Z" fill="#6842C2"/>
<path d="M371.113 395.464L375.235 432.123H353.753L342.613 395.464H371.113Z" fill="#FEC9CF"/>
<path d="M351.419 424.455C351.419 424.455 342.088 435.42 349.086 437.373C356.085 439.325 402.159 439.495 413.532 438.264C424.904 437.019 388.162 425.686 379.763 423.903C371.365 422.12 368.643 431.416 351.419 424.455Z" fill="#6842C2"/>
<path d="M253.848 195.018L244.108 414.819H289.463L299.242 268.422L338.104 419.022L387.502 413.037C387.502 413.037 342.905 248.755 335.324 195.032H253.848V195.018Z" fill="#D8D8E3"/>
<path d="M297.034 285.341L294.446 245.534L298.736 268.429L297.034 285.341Z" fill="#194248" stroke="#C9C9D4"/>
<path d="M320.743 195.018L373.233 414.268" stroke="#C9C9D4" stroke-miterlimit="10" stroke-linecap="round" stroke-linejoin="round"/>
<path d="M309.817 33C319.498 33.0142 329.782 36.707 333.048 43.3428C335.576 48.4505 333.671 54.4779 337.209 59.2602C339.814 62.7974 345.024 65.0753 347.376 68.6974C352.236 76.2246 342.769 85.1666 345.782 93.1748C348.562 100.589 361.179 104.833 362.229 112.488C362.909 117.369 358.185 122.053 352.1 124.175C346.035 126.311 338.919 126.297 332.271 125.491C315.96 123.496 300.602 116.987 284.078 117.61C277.273 117.864 270.158 119.308 263.859 117.398C259.369 116.039 256.122 113.167 253.264 110.309C249.979 107.026 246.829 103.291 247.14 99.2446C247.588 93.3022 254.994 89.1424 259.427 84.1479C263.957 79.0402 265.862 72.6591 264.598 66.6458C258.591 38.0653 280.675 38.9425 283.494 38.9001C286.08 38.8576 294.673 35.0233 298.075 34.3017C301.924 33.4952 305.851 33 309.817 33Z" fill="#D38D00"/>
<path d="M206.062 152.91C196.712 147.491 158.686 129.183 158.316 126.622C157.616 121.811 155.303 118.005 141.131 114.723C141.131 114.723 140.003 116.251 141.967 117.935C144.086 119.76 145.797 120.396 145.797 120.396C145.797 120.396 142.025 121.415 136.465 118.189C130.905 114.963 128.592 112.176 126.22 112.841C126.22 112.841 123.459 110.987 122.137 111.27C122.137 111.27 121.165 111.469 121.34 112.233C119.144 111.964 119.532 116.562 123.362 120.34C128.883 125.759 138.623 129.89 144.339 131.461C148.615 132.635 176.668 162.829 195.467 166.097C200.872 167.003 210.417 155.429 206.062 152.91Z" fill="#FCDDC6"/>
<path d="M235.477 126.127C235.477 126.127 193.446 147.464 189.383 152.769C185.32 158.075 188.353 172.238 207.074 163.141C225.796 154.043 255.345 137.531 255.345 137.531L235.477 126.127Z" fill="#FCDDC6"/>
<path d="M257.074 106.701C257.074 106.701 245.526 108.823 237.828 115.487C231.373 121.076 220.973 130.075 220.973 130.075L252.855 148.1C252.875 148.086 260.651 115.318 257.074 106.701Z" fill="#47248F"/>
<path d="M335.323 195.018H253.828C253.828 195.018 254.159 184.845 249.629 169.041C245.08 153.251 247.355 144.988 251.884 136.739C256.433 128.49 248.327 109.418 257.075 106.701C260.633 105.597 266.815 103.815 272.88 102.103C274.416 101.678 275.932 101.24 277.39 100.829C284.428 98.8485 290.357 97.2072 290.357 97.2072H305.035C305.035 97.2072 315.144 99.6408 325.525 102.655C326.886 103.051 328.266 103.461 329.627 103.871C329.627 103.885 329.627 103.885 329.627 103.885C334.857 105.484 339.853 107.168 343.255 108.71C354.278 113.662 335.323 195.018 335.323 195.018Z" fill="#6842C2"/>
<path d="M285.419 70.9612L286.974 92.9201L287.421 99.1881C287.616 101.848 289.21 104.225 291.698 105.937C294.167 107.649 297.511 108.682 301.166 108.682C308.903 108.682 315.124 104.041 314.93 98.424L314.541 87.2465L313.88 68.6691L285.419 70.9612Z" fill="#FFDFC8"/>
<path d="M285.419 70.9612L286.974 91.6468C300.33 92.0429 310.089 88.0813 314.56 82.8179L313.899 68.6691L285.419 70.9612Z" fill="#DA9F74"/>
<path d="M274.805 53.9544C274.805 53.9544 273.813 61.1137 275.193 69.0228C276.788 78.1771 278.187 88.6614 294.77 89.6518C314.522 90.8261 321.112 74.3003 321.112 74.3003C321.112 74.3003 330.288 72.744 331.416 68.1881C332.543 63.618 325.7 62.2456 323.309 63.6888C323.309 63.6888 320.587 44.4181 296.131 44.4181C274.513 44.4181 274.805 53.9544 274.805 53.9544Z" fill="#FFDFC8"/>
<path d="M329.627 103.871C329.627 103.885 329.627 103.885 329.627 103.871C312.908 118.699 293.195 118.006 293.195 118.006C277.643 115.53 272.88 102.103 272.88 102.103C274.416 101.678 275.932 101.24 277.39 100.829C284.428 98.8485 290.357 97.2072 290.357 97.2072H305.035C305.035 97.2072 315.144 99.6408 325.525 102.655C326.886 103.051 328.266 103.461 329.627 103.871Z" fill="#04D361"/>
<path d="M325.524 102.655C308.474 116.138 293.699 114.723 293.699 114.723C277.816 110.295 277.389 100.829 277.389 100.829C284.426 98.8485 290.356 97.2072 290.356 97.2072H305.033C305.033 97.2072 315.142 99.6408 325.524 102.655Z" fill="#FCDDC6"/>
<path d="M283.319 40.2583C283.319 40.2583 285.594 54.1949 273.288 58.7932C273.288 58.7932 267.125 41.9137 283.319 40.2583Z" fill="#D38D00"/>
<path d="M279.586 41.5883C279.586 41.5883 283.96 53.728 294.808 54.4354C305.656 55.1428 303.731 61.5381 313.335 62.2738C319.05 62.7125 321.597 67.042 321.597 67.042C321.597 67.042 322.433 62.7408 327.604 61.2127C332.814 59.6846 315.376 27.5527 279.586 41.5883Z" fill="#D38D00"/>
<path d="M297.996 70.8053C297.996 71.5692 298.832 72.1775 299.882 72.1775C300.931 72.1775 301.767 71.5692 301.767 70.8053C301.767 70.0414 300.931 69.4331 299.882 69.4331C298.851 69.4331 297.996 70.0556 297.996 70.8053Z" fill="#60423D"/>
<path d="M280.931 70.8042C280.931 71.5681 281.766 72.1764 282.816 72.1764C283.866 72.1764 284.701 71.5681 284.701 70.8042C284.701 70.0403 283.846 69.432 282.816 69.432C281.766 69.432 280.931 70.0544 280.931 70.8042Z" fill="#60423D"/>
<path d="M306.762 66.0228C306.762 66.0228 303.963 62.6702 297.996 63.8726" stroke="#561E15" stroke-miterlimit="10" stroke-linecap="round" stroke-linejoin="round"/>
<path d="M287.731 63.83C287.731 63.83 283.416 60.9725 279.198 64.0988" stroke="#561E15" stroke-miterlimit="10" stroke-linecap="round" stroke-linejoin="round"/>
<path d="M291.502 67.2393C291.502 67.2393 289.461 71.0312 287.73 73.394C286 75.7569 291.133 76.8039 291.133 76.8039" stroke="#DA9F74" stroke-width="0.75" stroke-miterlimit="10" stroke-linecap="round" stroke-linejoin="round"/>
<path d="M302.817 79.4929C302.817 79.4929 299.493 83.0154 293.701 82.011" stroke="#DA9F74" stroke-width="0.75" stroke-miterlimit="10" stroke-linecap="round" stroke-linejoin="round"/>
<path d="M323.249 69.8429C323.249 69.8429 323.307 65.5707 327.681 66.7448" stroke="#DA9F74" stroke-width="0.75" stroke-miterlimit="10" stroke-linecap="round" stroke-linejoin="round"/>
<path d="M255.501 180.897H180.849C179.371 180.897 178.166 180.02 178.166 178.945C178.166 177.87 179.371 176.992 180.849 176.992H255.501C256.978 176.992 258.183 177.87 258.183 178.945C258.164 180.034 256.978 180.897 255.501 180.897Z" fill="#04D361"/>
<path d="M171.893 134.767L171.893 134.767L171.892 134.764C171.66 134.093 171.876 133.405 172.477 132.844C173.085 132.278 174.065 131.877 175.23 131.877H242.475C244.162 131.877 245.478 132.708 245.811 133.701L245.812 133.703L260.4 176.506H186.124L171.893 134.767Z" fill="#04D361" stroke="#04D361"/>
<path d="M255.929 177.006H180.597L166.249 134.928C165.627 133.131 167.513 131.377 170.06 131.377H237.305C239.113 131.377 240.688 132.268 241.115 133.541L255.929 177.006Z" fill="white"/>
<path d="M313.279 180.897H256.784C255.404 180.897 254.276 180.077 254.276 179.072V178.832C254.276 177.827 255.404 177.006 256.784 177.006H313.279C314.659 177.006 315.786 177.827 315.786 178.832V179.072C315.806 180.091 314.678 180.897 313.279 180.897Z" fill="#04D361"/>
<path d="M213.398 151.758L213.398 151.759C214.026 152.942 214.063 154.123 213.665 155.082C213.267 156.04 212.413 156.826 211.157 157.184C208.611 157.896 205.465 156.522 204.192 154.12C203.564 152.937 203.526 151.752 203.925 150.791C204.323 149.832 205.177 149.046 206.432 148.695C208.98 147.982 212.125 149.344 213.398 151.758Z" fill="#04D361" stroke="#04D361"/>
<path d="M339.444 177.006L334.545 130.796L343.954 150.251L339.444 177.006Z" fill="#47248F"/>
<path d="M340.085 135.494C340.085 135.494 351.71 180.968 354.588 188.41C356.454 193.221 370.024 196.503 374.281 190.136C375.214 188.736 375 186.401 374.903 184.024C374.242 169.324 360.109 131.914 360.109 131.914L340.085 135.494Z" fill="#FCDDC6"/>
<path d="M343.276 108.71C343.276 108.71 350.216 111.299 356.048 118.614C361.88 125.929 369.929 138.833 369.423 141.96C366.391 147.973 342.44 154.199 342.44 154.199C342.44 154.199 326.44 115.926 343.276 108.71Z" fill="#6842C2"/>
<path d="M356.708 179.624C356.708 179.624 319.79 179.03 312.792 176.002C303.305 171.885 301.108 173.667 295.606 172.677C286.78 171.078 287.752 172.38 287.752 172.38C287.752 172.38 288.16 176.101 294.984 176.568C298.425 176.808 303.577 177.87 302.488 178.478C302.488 178.478 275.116 180.558 269.614 180.912C264.112 181.265 266.795 184.35 270.994 185.057C270.994 185.057 273.502 187.363 277.565 186.656C277.565 186.656 276.671 187.958 287.208 187.958C297.744 187.958 308.32 183.883 313.666 185.651C319.012 187.42 347.882 195.556 366.195 193.674C374.943 192.768 375.001 189.712 375.001 186.486C375.001 180.897 369.325 180.19 356.708 179.624Z" fill="#FCDDC6"/>
<path d="M52.9837 102.797H176.53C184.8 102.797 191.514 95.1777 191.514 85.7935V43.0038C191.514 33.6195 184.8 26 176.53 26H52.9837C44.7143 26 38 33.6195 38 43.0038V85.7935C38 95.1985 44.7143 102.797 52.9837 102.797Z" fill="#6842C2"/>
<path d="M173.109 98.3957V117.04L155.491 97.067L173.109 98.3957Z" fill="#6842C2"/>
<path d="M52.1973 44.8515H86.4456" stroke="white" stroke-width="2.2165" stroke-miterlimit="10" stroke-linecap="round" stroke-linejoin="round"/>
<path d="M98.6494 44.8515H177.318" stroke="white" stroke-width="2.2165" stroke-miterlimit="10" stroke-linecap="round" stroke-linejoin="round"/>
<path d="M52.1973 64.409H116.047" stroke="white" stroke-width="2.2165" stroke-miterlimit="10" stroke-linecap="round" stroke-linejoin="round"/>
<path d="M125.817 64.409H144.716" stroke="white" stroke-width="2.2165" stroke-miterlimit="10" stroke-linecap="round" stroke-linejoin="round"/>
<path d="M154.851 64.409H177.317" stroke="white" stroke-width="2.2165" stroke-miterlimit="10" stroke-linecap="round" stroke-linejoin="round"/>
<path d="M52.1973 83.9457H66.6504" stroke="white" stroke-width="2.2165" stroke-miterlimit="10" stroke-linecap="round" stroke-linejoin="round"/>
<path d="M75.5059 83.9457H127.647" stroke="white" stroke-width="2.2165" stroke-miterlimit="10" stroke-linecap="round" stroke-linejoin="round"/>
</svg>
